<svg width="19" height="19" viewBox="0 0 19 19" fill="none" xmlns="http://www.w3.org/2000/svg">
<path fill-rule="evenodd" clip-rule="evenodd" d="M11.7202 11.7649C9.36475 14.0957 5.56581 14.0757 3.23505 11.7202C0.904292 9.36475 0.92432 5.56581 3.27979 3.23505C5.63525 0.904292 9.43419 0.92432 11.7649 3.27979C14.0957 5.63525 14.0757 9.43419 11.7202 11.7649ZM12.4122 13.1679C9.45264 15.7379 4.96531 15.6014 2.16881 12.7753C-0.744636 9.83094 -0.7196 5.08226 2.22473 2.16881C5.16907 -0.744636 9.91774 -0.7196 12.8312 2.22473C15.4562 4.87756 15.6958 8.99514 13.5639 11.9154L18.3175 16.669L18.9186 17.2701L17.7165 18.4722L17.1155 17.8711L12.4122 13.1679Z" fill="#595959"/>
</svg>
